<?xml version="1.0" standalone="no"?>
<!DOCTYPE svg PUBLIC "-//W3C//DTD SVG 20010904//EN"
 "http://www.w3.org/TR/2001/REC-SVG-20010904/DTD/svg10.dtd">
<svg version="1.0" xmlns="http://www.w3.org/2000/svg"
 width="280.000000pt" height="67.000000pt" viewBox="0 0 280.000000 67.000000"
 preserveAspectRatio="xMidYMid meet">

<g transform="translate(0.000000,67.000000) scale(0.100000,-0.100000)"
fill="#000000" stroke="none">
<path d="M2313 505 c-17 -13 -17 -15 -1 -31 20 -20 48 -12 48 15 0 25 -23 33
-47 16z"/>
<path d="M87 503 c-4 -3 -7 -66 -7 -139 0 -154 -3 -151 107 -139 55 6 71 12
101 39 32 30 36 40 39 92 5 71 -19 117 -72 140 -35 14 -156 20 -168 7z m167
-62 c14 -15 20 -34 20 -71 1 -45 -3 -55 -27 -76 -21 -18 -40 -24 -73 -24 l-44
0 0 101 0 102 52 -6 c32 -4 60 -14 72 -26z"/>
<path d="M1120 497 c-96 -48 -93 -222 5 -263 44 -18 77 -18 121 1 25 10 34 20
32 32 -4 18 -9 18 -70 6 -71 -14 -116 38 -103 117 11 66 56 87 143 65 28 -6
32 -5 32 12 0 39 -104 58 -160 30z"/>
<path d="M2187 503 c-4 -3 -7 -60 -7 -125 0 -106 2 -120 21 -139 23 -23 72
-23 77 1 1 8 -8 20 -20 25 -22 9 -23 16 -26 128 -2 105 -4 117 -21 117 -10 0
-21 -3 -24 -7z"/>
<path d="M2427 473 c-4 -3 -7 -16 -7 -29 0 -13 -8 -24 -20 -27 -11 -3 -20 -10
-20 -17 0 -7 9 -14 20 -17 17 -5 20 -14 20 -60 0 -44 4 -58 25 -79 32 -32 90
-31 90 1 0 15 -6 19 -22 17 -28 -4 -43 24 -43 77 0 36 3 41 24 41 25 0 51 22
39 33 -3 4 -19 7 -35 7 -24 0 -28 4 -28 30 0 22 -5 30 -18 30 -10 0 -22 -3
-25 -7z"/>
<path d="M430 419 c-62 -24 -81 -113 -36 -166 21 -24 31 -28 80 -28 58 0 83
13 73 39 -5 12 -11 13 -36 3 -37 -14 -84 0 -89 26 -3 15 5 17 62 17 36 0 67 4
70 8 12 21 -16 82 -44 97 -33 17 -45 18 -80 4z m68 -41 c25 -25 13 -38 -33
-38 -30 0 -45 4 -45 13 0 19 21 37 45 37 12 0 26 -5 33 -12z"/>
<path d="M634 411 c-57 -35 -66 -117 -19 -161 34 -32 103 -38 134 -13 34 28
21 43 -27 30 -45 -12 -66 -6 -82 22 -10 20 -8 21 60 21 l70 0 0 29 c0 67 -78
108 -136 72z m90 -43 c15 -24 5 -30 -48 -26 -46 3 -47 3 -30 26 19 27 61 27
78 0z"/>
<path d="M820 415 c-7 -8 -10 -57 -8 -136 3 -116 4 -124 23 -124 17 0 20 8 23
48 3 46 4 47 25 32 33 -23 65 -18 98 14 23 24 29 38 29 74 0 78 -59 124 -121
93 -16 -8 -29 -11 -29 -6 0 15 -28 19 -40 5z m122 -42 c10 -9 18 -30 18 -49 0
-59 -54 -86 -84 -42 -22 31 -20 64 4 88 24 24 38 25 62 3z"/>
<path d="M1352 419 c-21 -6 -32 -15 -30 -25 4 -18 3 -18 51 -9 39 8 67 -5 67
-31 0 -10 -13 -14 -43 -14 -52 0 -87 -22 -87 -56 0 -51 79 -86 110 -49 11 14
14 13 25 -1 23 -32 35 -5 35 75 0 63 -4 81 -18 94 -24 22 -69 28 -110 16z m88
-115 c0 -20 -24 -44 -45 -44 -27 0 -39 14 -31 35 5 14 76 22 76 9z"/>
<path d="M1540 415 c-9 -11 -11 -37 -8 -87 5 -59 10 -75 28 -90 27 -22 58 -23
87 -3 19 13 22 13 27 0 8 -23 33 -18 40 8 12 45 6 153 -9 173 -15 19 -15 19
-30 0 -9 -12 -15 -41 -15 -76 0 -58 -11 -80 -41 -80 -26 0 -33 18 -39 94 -5
71 -17 89 -40 61z"/>
<path d="M1802 420 c-29 -12 -49 -56 -36 -78 6 -9 33 -24 60 -33 70 -22 66
-45 -8 -42 -45 1 -58 -1 -58 -13 0 -37 121 -43 148 -7 31 42 1 83 -71 98 -20
4 -27 11 -25 23 3 13 14 17 51 17 52 0 63 13 26 32 -28 15 -55 15 -87 3z"/>
<path d="M1998 419 c-17 -7 -28 -18 -28 -30 0 -22 0 -22 36 -8 38 14 74 4 74
-21 0 -16 -7 -20 -34 -20 -77 0 -113 -38 -82 -85 20 -31 59 -41 93 -26 20 9
28 9 34 0 4 -7 14 -9 23 -6 24 9 23 146 -1 176 -21 25 -76 35 -115 20z m82
-122 c0 -20 -21 -37 -46 -37 -26 0 -38 14 -30 35 7 19 76 21 76 2z"/>
<path d="M2322 421 c-9 -5 -12 -34 -10 -102 3 -86 5 -94 23 -94 18 0 20 8 23
91 3 93 -8 123 -36 105z"/>
<path d="M2559 420 c-11 -7 -7 -24 20 -87 35 -80 37 -94 25 -150 -5 -26 -3
-33 10 -33 20 0 34 24 86 147 40 95 46 133 20 133 -10 0 -37 -54 -64 -125 -7
-16 -13 -7 -34 47 -28 70 -39 82 -63 68z"/>
</g>
</svg>
